<svg width="320" height="320" viewBox="0 0 320 320" fill="none" xmlns="http://www.w3.org/2000/svg">
<g clip-path="url(#clip0_18_35)">
<path fill-rule="evenodd" clip-rule="evenodd" d="M8.71948 43.6808C0 60.7937 0 83.1958 0 128V192C0 236.804 0 259.206 8.71948 276.319C16.3893 291.372 28.6278 303.611 43.6808 311.281C60.7937 320 83.1958 320 128 320H192C236.804 320 259.206 320 276.319 311.281C291.372 303.611 303.611 291.372 311.281 276.319C320 259.206 320 236.804 320 192V128C320 83.1958 320 60.7937 311.281 43.6808C303.611 28.6278 291.372 16.3893 276.319 8.71948C259.206 0 236.804 0 192 0H128C83.1958 0 60.7937 0 43.6808 8.71948C28.6278 16.3893 16.3893 28.6278 8.71948 43.6808ZM99.3054 88.5454V113.901H143.837V234H174.234V113.901H218.766V88.5454H99.3054Z" fill="white"/>
</g>
<defs>
<clipPath id="clip0_18_35">
<rect width="320" height="320" fill="white"/>
</clipPath>
</defs>
</svg>
