<svg width="320" height="320" viewBox="0 0 320 320" fill="none" xmlns="http://www.w3.org/2000/svg">
<g clip-path="url(#clip0_24_45)">
<path fill-rule="evenodd" clip-rule="evenodd" d="M0 128C0 83.1958 0 60.7937 8.71948 43.6808C16.3893 28.6278 28.6278 16.3893 43.6808 8.71948C60.7937 0 83.1958 0 128 0H192C236.804 0 259.206 0 276.319 8.71948C291.372 16.3893 303.611 28.6278 311.281 43.6808C320 60.7937 320 83.1958 320 128V192C320 236.804 320 259.206 311.281 276.319C303.611 291.372 291.372 303.611 276.319 311.281C259.206 320 236.804 320 192 320H128C83.1958 320 60.7937 320 43.6808 311.281C28.6278 303.611 16.3893 291.372 8.71948 276.319C0 259.206 0 236.804 0 192V128ZM128 112C128 94.3269 142.327 80 160 80C177.673 80 192 94.3269 192 112C192 129.673 177.673 144 160 144C142.327 144 128 129.673 128 112ZM160 176C142.327 176 128 190.327 128 208C128 225.673 142.327 240 160 240C177.673 240 192 225.673 192 208C192 190.327 177.673 176 160 176Z" fill="white"/>
</g>
<defs>
<clipPath id="clip0_24_45">
<rect width="320" height="320" fill="white"/>
</clipPath>
</defs>
</svg>
